HIERARCHY
ROOT Hips
{
    OFFSET 0.000000 0.000000 0.000000
    CHANNELS 6 Xposition Yposition Zposition Zrotation Xrotation Yrotation
    JOINT Spine
    {
        OFFSET -0.000000 7.979263 0.000000
        CHANNELS 3 Zrotation Xrotation Yrotation
        JOINT Spine1
        {
            OFFSET -0.000000 24.719021 0.000000
            CHANNELS 3 Zrotation Xrotation Yrotation
            JOINT Neck
            {
                OFFSET -0.000000 24.617504 2.237955
                CHANNELS 3 Zrotation Xrotation Yrotation
                JOINT Head
                {
                    OFFSET -0.000000 13.623132 -1.946162
                    CHANNELS 3 Zrotation Xrotation Yrotation
                    End Site
                    {
                        OFFSET -0.000000 24.327021 0.000000
                    }
                }
            }
            JOINT LeftShoulder
            {
                OFFSET 3.885773 23.018444 -0.302444
                CHANNELS 3 Zrotation Xrotation Yrotation
                JOINT LeftArm
                {
                    OFFSET 10.447750 0.000000 0.000000
                    CHANNELS 3 Zrotation Xrotation Yrotation
                    JOINT LeftForeArm
                    {
                        OFFSET 29.090096 0.000000 0.000000
                        CHANNELS 3 Zrotation Xrotation Yrotation
                        JOINT LeftHand
                        {
                            OFFSET 28.893339 0.000000 0.000000
                            CHANNELS 3 Zrotation Xrotation Yrotation
                            End Site
                            {
                                OFFSET 14.596213 0.000000 0.000000
                            }
                        }
                    }
                }
            }
            JOINT RightShoulder
            {
                OFFSET -3.864586 23.018444 -0.302444
                CHANNELS 3 Zrotation Xrotation Yrotation
                JOINT RightArm
                {
                    OFFSET -10.447750 0.000000 0.000000
                    CHANNELS 3 Zrotation Xrotation Yrotation
                    JOINT RightForeArm
                    {
                        OFFSET -29.090096 0.000000 0.000000
                        CHANNELS 3 Zrotation Xrotation Yrotation
                        JOINT RightHand
                        {
                            OFFSET -28.893339 0.000000 0.000000
                            CHANNELS 3 Zrotation Xrotation Yrotation
                            End Site
                            {
                                OFFSET -14.596213 0.000000 0.000000
                            }
                        }
                    }
                }
            }
        }
    }
    JOINT LeftUpLeg
    {
        OFFSET 9.730808 0.000000 0.000000
        CHANNELS 3 Zrotation Xrotation Yrotation
        JOINT LeftLeg
        {
            OFFSET -0.000000 -34.800129 0.000000
            CHANNELS 3 Zrotation Xrotation Yrotation
            JOINT LeftFoot
            {
                OFFSET -0.000000 -44.597416 0.000000
                CHANNELS 3 Zrotation Xrotation Yrotation
                JOINT LeftToeBase
                {
                    OFFSET -0.000000 -6.325025 14.596213
                    CHANNELS 3 Zrotation Xrotation Yrotation
                    End Site
                    {
                        OFFSET -0.000000 0.000000 3.892323
                    }
                }
            }
        }
    }
    JOINT RightUpLeg
    {
        OFFSET -9.730808 0.000000 0.000000
        CHANNELS 3 Zrotation Xrotation Yrotation
        JOINT RightLeg
        {
            OFFSET -0.000000 -34.800129 0.000000
            CHANNELS 3 Zrotation Xrotation Yrotation
            JOINT RightFoot
            {
                OFFSET -0.000000 -44.597416 0.000000
                CHANNELS 3 Zrotation Xrotation Yrotation
                JOINT RightToeBase
                {
                    OFFSET -0.000000 -6.325025 14.596213
                    CHANNELS 3 Zrotation Xrotation Yrotation
                    End Site
                    {
                        OFFSET -0.000000 0.000000 3.892323
                    }
                }
            }
        }
    }
}
MOTION
Frames:    9
Frame Time:    0.008333
-9.354897    33.293381    59.316540    -7.009359    -1.785856    86.683517    -0.838483    5.843239    2.285214    4.620291    34.996315    0.785062    -4.268734    24.075682    0.737421    4.221339    -47.282001    2.751239    -6.610380    1.017675    -35.132084    -19.428446    40.194752    -26.784569    9.542160    -12.034479    -15.701524    31.687534    -7.213838    12.534120    -4.380819    -2.809757    20.321781    19.675934    44.387295    42.656990    -9.083241    -6.744268    12.634706    -38.396446    -3.248582    -7.174461    140.394226    -70.419823    134.381088    174.141525    38.268246    -173.578796    -11.055231    -44.894291    -13.418446    0.000000    0.000000    0.000000    -156.468063    -78.883469    -150.951447    176.605453    38.043003    174.720520    20.633884    -44.618683    28.909208    0.000000    0.000000    0.000000    
-9.308146    33.166885    59.329052    -6.932920    -1.784157    86.687439    -0.829937    5.876688    2.302274    4.652400    35.016342    0.791300    -4.365299    24.045191    0.740418    4.449373    -47.265743    2.872440    -6.672543    1.016643    -35.085098    -19.592213    40.259167    -26.633131    9.704995    -12.030190    -15.976299    31.823740    -7.116544    12.641811    -4.329113    -2.831160    20.435112    20.308630    44.444813    41.993073    -9.366558    -6.811276    12.881804    -38.838722    -3.206272    -7.249684    140.390686    -70.376076    134.461426    174.072708    38.040188    -173.455261    -10.977092    -45.043488    -13.350643    0.000000    0.000000    0.000000    -156.221817    -78.843658    -150.693802    176.568619    37.806355    174.868088    20.518745    -44.799648    28.726370    0.000000    0.000000    0.000000    
-9.275697    33.034420    59.340199    -6.899354    -1.772286    86.728920    -0.783295    5.903479    2.316149    4.600943    34.977169    0.825352    -4.313720    24.060263    0.722543    4.530761    -47.262138    2.901437    -6.637664    1.048170    -35.160931    -19.863138    40.335842    -26.419643    9.942355    -12.077929    -16.142212    31.959288    -7.065592    12.764574    -4.194819    -2.671486    20.356569    20.506250    44.510525    41.718342    -9.748481    -6.873011    13.004909    -38.538460    -3.489697    -6.524933    140.570953    -70.332855    134.596191    174.178207    37.862789    -173.542847    -10.792252    -45.254425    -13.147374    0.000000    0.000000    0.000000    -156.000854    -78.737831    -150.493286    176.584503    37.552864    174.889999    20.462069    -44.928017    28.616268    0.000000    0.000000    0.000000    
-9.236088    32.917274    59.356297    -6.809566    -1.775798    86.752548    -0.777196    5.909235    2.343440    4.650376    35.087082    0.832425    -4.250567    24.145685    0.740068    4.474370    -47.495327    2.899567    -6.614636    1.065547    -35.208313    -20.012629    40.405354    -26.320881    10.119667    -12.163335    -16.298367    32.162842    -7.028038    12.973576    -4.285883    -2.651933    20.325655    21.125410    44.414341    41.271896    -9.992229    -6.730699    13.134410    -38.822449    -3.275479    -6.563435    140.618805    -70.314209    134.642792    174.166641    37.673229    -173.603058    -10.642759    -45.402920    -12.971196    0.000000    0.000000    0.000000    -155.843369    -78.718224    -150.381134    176.598099    37.321651    174.915909    20.324610    -45.070484    28.430424    0.000000    0.000000    0.000000    
-9.175407    32.804634    59.378944    -6.722179    -1.780222    86.687729    -0.808919    5.807829    2.378868    4.717506    35.322456    0.834997    -4.217393    24.041380    0.757327    4.392352    -47.442410    2.877219    -6.618824    1.057435    -35.190823    -20.172998    40.459969    -26.221706    10.264270    -12.264244    -16.425348    32.459553    -7.011169    13.146696    -4.271600    -2.746750    20.420790    21.608732    44.510075    40.782341    -10.227853    -6.842842    13.267262    -39.204689    -3.309779    -6.604008    140.502960    -70.207405    134.617126    174.063599    37.414917    -173.622803    -10.407865    -45.455116    -12.672602    0.000000    0.000000    0.000000    -156.155197    -78.752068    -150.729630    176.675385    37.064171    174.906662    20.297470    -45.136932    28.367523    0.000000    0.000000    0.000000    
-9.121926    32.718418    59.376621    -6.572733    -1.742944    86.712303    -0.835128    5.959479    2.409689    4.756840    35.272388    0.853124    -3.992778    24.237675    0.756120    4.034503    -47.637039    2.695861    -6.740314    1.100444    -35.322132    -20.336550    40.625446    -25.999556    10.419104    -12.393103    -16.498533    32.705772    -7.047128    13.265916    -4.125423    -2.603880    20.365551    21.996283    44.328037    40.387630    -10.349023    -6.951444    13.345476    -39.279919    -3.419993    -6.527812    140.425613    -70.279854    134.636307    174.036026    37.237793    -173.678436    -10.185869    -45.522858    -12.398232    0.000000    0.000000    0.000000    -155.835587    -78.812584    -150.394775    176.617523    36.871288    175.044189    20.109917    -45.289936    28.012438    0.000000    0.000000    0.000000    
-9.082805    32.633240    59.375774    -6.504004    -1.696483    86.762314    -0.801845    5.932323    2.387101    4.683649    35.415699    0.849342    -3.863485    24.099751    0.791440    3.884069    -47.543018    2.661803    -6.711177    1.064403    -35.332756    -20.491917    40.590988    -25.921543    10.421482    -12.418384    -16.591520    33.004406    -7.001482    13.349312    -3.984386    -2.410761    20.355709    22.101627    44.089756    40.218712    -10.367506    -6.666250    13.370841    -39.714767    -3.090887    -6.555108    140.608429    -70.313499    134.938583    174.003036    37.080292    -173.664948    -10.025148    -45.580002    -12.172644    0.000000    0.000000    0.000000    -155.622452    -78.799667    -150.131912    176.609406    36.671295    175.227615    19.875326    -45.450832    27.647472    0.000000    0.000000    0.000000    
-9.056377    32.556271    59.374924    -6.460670    -1.651067    86.820320    -0.795936    5.950143    2.367415    4.641471    35.415073    0.843325    -3.841010    24.108406    0.826723    3.974965    -47.525440    2.748937    -6.680646    1.138762    -35.429062    -20.476841    40.900433    -25.864990    10.533743    -12.584186    -16.627806    33.450428    -7.008790    13.629998    -3.928430    -2.527994    20.395073    22.609308    44.221291    39.810822    -10.526503    -6.782371    13.371406    -40.046955    -3.186110    -6.503661    140.839844    -70.345695    135.171097    174.037262    36.963551    -173.749146    -9.911781    -45.644783    -12.050400    0.000000    0.000000    0.000000    -155.531006    -78.782036    -150.045395    176.642212    36.500324    175.230408    19.761465    -45.592800    27.422224    0.000000    0.000000    0.000000    
-9.048965    32.477757    59.372139    -6.463984    -1.622173    86.890892    -0.794905    5.933132    2.331750    4.695466    35.431496    0.789825    -3.915401    24.070351    0.861767    4.091516    -47.528320    2.845429    -6.700503    1.133762    -35.435947    -20.546930    40.976093    -25.862959    10.558236    -12.476472    -16.604322    33.756737    -6.854751    13.641174    -3.974192    -2.462673    20.312729    22.770895    44.208584    39.783741    -10.667236    -6.882864    13.358506    -40.260250    -3.286173    -6.427088    141.243576    -70.365738    135.525284    174.081207    36.876141    -173.821274    -9.909213    -45.726513    -12.028605    0.000000    0.000000    0.000000    -155.497299    -78.710495    -150.005859    176.654251    36.345295    175.225815    19.679876    -45.716320    27.257576    0.000000    0.000000    0.000000    
